<svg xmlns="http://www.w3.org/2000/svg" viewBox="0 0 500 500"><g id="freepik--background-complete--inject-60"><path d="M418.65,340.16l13.67-.27,6.73-.12c2.24,0,4.47,0,6.7,0l-.44.44-.06-11.45.5.5-13.55-.06c-4.51,0-9-.11-13.55-.17l.28-.27c0,1.88-.09,3.76-.14,5.67Zm0,0-.14-5.66c0-1.91-.11-3.85-.13-5.79v-.27h.27c4.52-.05,9-.16,13.55-.16l13.55-.07h.51v.5l-.05,11.45v.45h-.45c-2.28,0-4.57,0-6.85-.06l-6.81-.11Z" style="fill:#ebebeb"></path><path d="M433.77,354.6l13.67-.27,6.73-.12c2.24,0,4.47,0,6.7,0l-.44.44-.06-11.45.5.5-13.55-.06c-4.52,0-9-.11-13.55-.16l.27-.28c0,1.88-.08,3.76-.13,5.67Zm0,0-.14-5.66c-.05-1.91-.11-3.85-.13-5.79v-.27h.28c4.52-.05,9-.16,13.55-.16l13.55-.07h.5v.5l-.05,11.45v.45h-.44c-2.28,0-4.57,0-6.85-.06l-6.81-.11Z" style="fill:#ebebeb"></path><rect x="403.53" y="343.15" width="27.1" height="11.45" transform="translate(834.17 697.76) rotate(180)" style="fill:#ebebeb"></rect><path d="M135.72,170.25l13.67-.28,6.73-.11c2.24-.05,4.47,0,6.71-.06l-.45.45,0-11.46.5.5-13.55-.06c-4.52,0-9-.11-13.56-.16l.28-.28c0,1.88-.09,3.77-.13,5.67Zm0,0-.14-5.67c0-1.91-.11-3.84-.13-5.79v-.26h.27c4.52-.05,9-.16,13.56-.16l13.55-.06h.5v.5l-.06,11.46v.45h-.44c-2.29,0-4.58,0-6.85-.05l-6.82-.11Z" style="fill:#ebebeb"></path><rect x="150.84" y="173.24" width="27.1" height="11.45" transform="translate(328.79 357.92) rotate(180)" style="fill:#ebebeb"></rect><path d="M120.61,184.69l13.66-.28,6.74-.11c2.24-.05,4.46,0,6.7-.06l-.45.45,0-11.45.5.49-13.55-.06c-4.52,0-9-.11-13.55-.16l.27-.27c0,1.87-.09,3.76-.13,5.66Zm0,0-.14-5.67c0-1.91-.12-3.84-.14-5.78V173h.28c4.51-.05,9-.16,13.55-.16l13.55-.06h.5v.51l-.06,11.45v.45h-.44c-2.29,0-4.57,0-6.85,0L134,185Z" style="fill:#ebebeb"></path><rect x="54.25" y="343.15" width="27.1" height="11.45" transform="translate(135.59 697.76) rotate(180)" style="fill:#ebebeb"></rect><path d="M54.25,44.66l13.66-.28,6.74-.11c2.24-.05,4.46,0,6.7-.05l-.45.44-.05-11.45.5.5L67.8,33.65c-4.52,0-9-.12-13.55-.17l.27-.27c0,1.88-.09,3.76-.13,5.67Zm0,0L54.1,39c0-1.92-.11-3.85-.13-5.79v-.27h.28c4.51,0,9-.16,13.55-.17l13.55-.06h.5v.5l-.06,11.45v.45h-.44c-2.29,0-4.57,0-6.85-.06l-6.82-.11Z" style="fill:#ebebeb"></path><rect x="39.13" y="47.65" width="27.1" height="11.45" transform="translate(105.36 106.75) rotate(180)" style="fill:#ebebeb"></rect><path d="M433.77,44.67l13.67-.27,6.73-.12c2.24,0,4.47,0,6.7-.05l-.44.44-.06-11.45.5.5-13.55-.06c-4.52,0-9-.11-13.55-.16l.27-.28c0,1.88-.08,3.76-.13,5.67Zm0,0L433.63,39c-.05-1.91-.11-3.85-.13-5.79V33h.28c4.52-.05,9-.16,13.55-.16l13.55-.07h.5v.5l-.05,11.45v.45h-.44c-2.28,0-4.57,0-6.85,0L447.21,45Z" style="fill:#ebebeb"></path><rect x="380.93" y="201.98" width="27.1" height="11.45" transform="translate(788.96 415.41) rotate(180)" style="fill:#ebebeb"></rect><rect x="263.73" y="322.67" width="27.1" height="11.45" transform="translate(554.57 656.8) rotate(180)" style="fill:#ebebeb"></rect><path d="M298.31,72.87l-13.67.28-6.73.11c-2.24,0-4.47,0-6.7.06l.44-.45.06,11.46-.5-.5,13.55.06c4.51,0,9,.11,13.55.16l-.28.28c0-1.88.09-3.76.14-5.67Zm0,0,.14,5.67c0,1.91.11,3.84.13,5.79v.27h-.27c-4.52.05-9,.16-13.55.16l-13.55.07h-.5v-.5l.05-11.46v-.44h.45c2.28,0,4.57,0,6.85,0l6.81.12Z" style="fill:#ebebeb"></path><path d="M283.19,58.43l-13.67.28-6.73.11c-2.24,0-4.47,0-6.7.06l.44-.45.06,11.46-.5-.5,13.55.06c4.52,0,9,.11,13.55.16l-.27.28c0-1.88.08-3.76.13-5.67Zm0,0,.14,5.67c.05,1.91.11,3.84.13,5.79v.27h-.28c-4.52,0-9,.16-13.55.16l-13.55.07h-.5v-.5l0-11.46V58h.44c2.28,0,4.57,0,6.85,0l6.81.12Z" style="fill:#ebebeb"></path><rect x="80.29" y="63.06" width="339.41" height="229.39" style="fill:#fff"></rect><rect x="248.01" y="64.1" width="3.98" height="230.34" style="fill:#ebebeb"></rect><path d="M338.18,159.06a6.13,6.13,0,1,1-6.13-6.12A6.12,6.12,0,0,1,338.18,159.06Z" style="fill:#dbdbdb"></path><path d="M332.05,145.62a13.44,13.44,0,0,0-4.19,26.21v-3.42a10.24,10.24,0,1,1,8.38,0v3.42a13.44,13.44,0,0,0-4.19-26.21Z" style="fill:#dbdbdb"></path><path d="M332.05,140.12a18.94,18.94,0,0,0-5.53,37.06l1.1-3a15.75,15.75,0,1,1,8.86,0l1.1,3a18.94,18.94,0,0,0-5.53-37.06Z" style="fill:#dbdbdb"></path><path d="M332.05,133.9A25.16,25.16,0,0,0,324.38,183l1.1-3a22,22,0,1,1,13.14,0l1.1,3a25.16,25.16,0,0,0-7.67-49.13Z" style="fill:#dbdbdb"></path><path d="M332.05,128a31.11,31.11,0,0,0-9.71,60.67l1.09-3a27.92,27.92,0,1,1,17.24,0l1.1,3A31.11,31.11,0,0,0,332.05,128Z" style="fill:#dbdbdb"></path><rect x="330.45" y="159.56" width="3.2" height="135.16" style="fill:#dbdbdb"></rect><rect x="248.91" y="233" width="126.62" height="3.2" transform="translate(-8.36 457.63) rotate(-71.75)" style="fill:#dbdbdb"></rect><rect x="350.28" y="171.28" width="3.2" height="126.62" transform="translate(-55.77 122.02) rotate(-18.25)" style="fill:#dbdbdb"></rect><rect x="322.42" y="202.64" width="19.34" height="3.2" style="fill:#dbdbdb"></rect><rect x="316.61" y="221.11" width="30.97" height="3.2" style="fill:#dbdbdb"></rect><rect x="310.77" y="238.86" width="42.64" height="3.2" style="fill:#dbdbdb"></rect><rect x="302.79" y="261.53" width="58.61" height="3.2" style="fill:#dbdbdb"></rect><rect x="301.82" y="250.2" width="54.08" height="3.2" transform="translate(-75.27 161.08) rotate(-24.79)" style="fill:#dbdbdb"></rect><rect x="333.73" y="224.76" width="3.2" height="54.08" transform="translate(-33.86 450.66) rotate(-65.21)" style="fill:#dbdbdb"></rect><rect x="290.65" y="277.27" width="74.04" height="3.2" transform="translate(-86.72 163.06) rotate(-24.79)" style="fill:#dbdbdb"></rect><rect x="334.92" y="241.85" width="3.2" height="74.04" transform="translate(-57.75 467.46) rotate(-65.21)" style="fill:#dbdbdb"></rect><rect x="309.86" y="230.87" width="39.72" height="3.2" transform="translate(-67.08 159.64) rotate(-24.79)" style="fill:#dbdbdb"></rect><rect x="332.87" y="212.61" width="3.2" height="39.72" transform="translate(-16.81 438.66) rotate(-65.21)" style="fill:#dbdbdb"></rect><rect x="315.77" y="211.34" width="29.26" height="3.2" transform="translate(-61.51 182.67) rotate(-28.38)" style="fill:#dbdbdb"></rect><rect x="332.19" y="198.3" width="3.2" height="29.26" transform="translate(-12.23 405.37) rotate(-61.62)" style="fill:#dbdbdb"></rect><path d="M76.31,59.07V296.44H423.69V59.07ZM419.7,292.45H80.29V63.06H419.7Z" style="fill:#ebebeb"></path><rect x="72.7" y="67.13" width="354.61" height="5.55" style="fill:#ebebeb"></rect><rect x="72.7" y="73.37" width="354.61" height="5.55" style="fill:#ebebeb"></rect><rect x="72.7" y="79.62" width="354.61" height="5.55" style="fill:#ebebeb"></rect><rect x="72.7" y="85.86" width="354.61" height="5.55" style="fill:#ebebeb"></rect><rect x="72.7" y="92.1" width="354.61" height="5.55" style="fill:#ebebeb"></rect><rect x="72.7" y="98.34" width="354.61" height="5.55" style="fill:#ebebeb"></rect><rect x="414.47" y="66" width="1" height="98.02" style="fill:#a6a6a6"></rect><polygon points="416.74 168.66 413.2 168.66 414.09 163.58 415.85 163.58 416.74 168.66" style="fill:#a6a6a6"></polygon><rect x="418.06" y="66" width="1" height="145.18" style="fill:#a6a6a6"></rect><polygon points="420.33 214.92 416.79 214.92 417.68 209.84 419.44 209.84 420.33 214.92" style="fill:#a6a6a6"></polygon><rect x="66.51" y="58.3" width="366.98" height="11.61" style="fill:#a6a6a6"></rect></g><g id="freepik--Table--inject-60"><polygon points="39.13 400.92 91.85 400.67 144.56 400.58 250 400.42 355.44 400.58 408.15 400.67 460.87 400.92 408.15 401.16 355.44 401.25 250 401.42 144.56 401.25 91.85 401.16 39.13 400.92" style="fill:#263238"></polygon></g><g id="freepik--Chair--inject-60"><path d="M175.17,366.13q0-.33-.06-.69c0-.25-.06-.5-.1-.77s-.08-.52-.12-.8a0,0,0,0,1,0,0c-.1-.58-.22-1.19-.37-1.85,0-.07,0-.13,0-.2-.06-.27-.12-.54-.19-.82s-.17-.7-.26-1.07c-.19-.74-.39-1.52-.62-2.33-.1-.4-.22-.8-.34-1.21-.49-1.75-1.07-3.63-1.7-5.62-.21-.68-.44-1.38-.67-2.08l-.36-1.11-.76-2.27-.79-2.34-.82-2.35c-1.4-4-2.92-8.28-4.48-12.55l-.93-2.56c-.59-1.61-1.19-3.22-1.78-4.82-.11-.28-.21-.57-.31-.85-.89-2.4-1.77-4.77-2.64-7.09l-.48-1.3-.3-.81-.3-.81-2-5.5-.31-.84c-.13-.38-.27-.75-.41-1.11-.39-1.08-.78-2.13-1.15-3.16-.25-.71-.5-1.4-.75-2.06l-.46-1.29L151,294q-.22-.61-.42-1.2c-.09-.25-.17-.5-.26-.73-.24-.71-.47-1.37-.68-2v0c-.11-.33-.22-.66-.31-1-.24-.72-.45-1.38-.63-2-.05-.15-.09-.31-.14-.46a1.67,1.67,0,0,1,0-.18c-.11-.36-.2-.7-.29-1-.13-.48-.23-.91-.31-1.28,0-.09,0-.17-.05-.25l0-.14a4.2,4.2,0,0,1-.1-.89,3.14,3.14,0,0,1,0-.51q.09-.56.27-1.23c.12-.45.29-.93.48-1.46.67-1.83,1.7-4.09,2.86-6.59.33-.71.68-1.44,1-2.19,1-2.24,2.13-4.61,3.12-7,.33-.79.65-1.59,1-2.37.6-1.58,1.14-3.14,1.57-4.65.21-.75.4-1.49.55-2.21a21.5,21.5,0,0,0,.44-3,10.46,10.46,0,0,0-.47-4.35,4.35,4.35,0,0,0-.25-.59,9.77,9.77,0,0,0-.91-1.57l-.26-.37a19.9,19.9,0,0,0-2-2.22c-.44-.43-.92-.86-1.42-1.28-.26-.22-.52-.44-.8-.66a70.34,70.34,0,0,0-8.14-5.49l-1.31-.77-.81-.46-1.17-.67-.66-.37-1.29-.71c-1.94-1.07-3.82-2.06-5.51-3l-1.09-.6-1-.57c-.66-.37-1.28-.72-1.84-1.06l-.8-.48-.7-.46-.31-.21c-.23-.16-.44-.32-.62-.46a3.88,3.88,0,0,1-.36-.32h0c-.06-.06-.12-.11-.17-.17a4.43,4.43,0,0,1-.6-.84,10.55,10.55,0,0,1-.72-1.5l-.28-.73a2.46,2.46,0,0,1-.14-.38c-.18-.53-.37-1.09-.56-1.7-.15-.45-.29-.92-.43-1.4h0c-.09-.33-.19-.66-.29-1-.34-1.22-.7-2.52-1.09-3.89-.28-1-.56-2-.87-3,0-.16-.09-.32-.14-.48-.42-1.41-.87-2.85-1.37-4.29-.18-.54-.37-1.08-.57-1.61l-.58-1.56,0,0c-.21-.53-.43-1.06-.65-1.58s-.4-.94-.62-1.4c-.47-1-1-2-1.5-3-.12-.23-.25-.46-.38-.68s-.29-.5-.44-.74l-.28-.45c-.24-.38-.48-.76-.74-1.12s-.63-.89-1-1.31c-2.81-3.59-15-5-25.16-3.52-.26,0-.53.07-.79.12A36.59,36.59,0,0,0,82,190c-.23.07-.45.15-.66.23s-.43.15-.64.24a15.13,15.13,0,0,0-3.84,2.08,8.32,8.32,0,0,0-.77.66,6.89,6.89,0,0,0-.69.75h0a9,9,0,0,0-.53.76c-.06.1-.13.2-.19.31l-.19.32a4,4,0,0,0-.2.35q-.41.72-.84,1.59c-.15.29-.3.59-.45.91-.3.63-.61,1.3-.92,2-1.1,2.47-2.28,5.35-3.43,8.28-.17.41-.33.83-.49,1.25s-.33.83-.49,1.25-.33.83-.49,1.24c-.24.62-.47,1.23-.71,1.83L65.3,217c-.14.37-.29.74-.43,1.1-.21.54-.41,1.06-.62,1.56-.13.33-.25.65-.38,1s-.15.38-.23.57c-.23.55-.44,1.07-.64,1.54l-.45,1c-.24.51-.45.93-.62,1.24l-.08.13a3.83,3.83,0,0,1-.24.31l0,0c-.25.28-.58.64-1,1.05-1,1-2.31,2.27-3.85,3.76-.45.43-.9.88-1.37,1.34l-.7.7L54,233c-1,1-2,2-2.9,3-.47.52-.94,1-1.4,1.57-.23.27-.46.53-.68.8-.44.52-.87,1-1.28,1.58a33,33,0,0,0-2.65,3.91c-.28.51-.53,1-.74,1.49a10.16,10.16,0,0,0-.38,1l-.12.39a.74.74,0,0,0,0,.14c0,.12-.07.24-.1.37a45.56,45.56,0,0,0-1.1,8.08c0,.76-.09,1.56-.13,2.39l0,.75,0,.94c0,1-.05,2-.06,3-.07,5.9.12,12.86.47,20.46.94,20.52,3.05,45.71,4.37,67.21a468.9,468.9,0,0,1,.57,50.68l8.6,0h2.4l96.64-.3,6.68,0,.33-.48c.06-.11.15-.23.24-.37.85-1.3,2.57-4,4.48-7.52l.46-.84q.23-.42.45-.87c.21-.39.41-.8.62-1.2.62-1.22,1.23-2.51,1.83-3.83.2-.44.39-.89.59-1.33,0,0,0,0,0,0,.19-.45.38-.9.56-1.36s.37-.92.55-1.39a51.81,51.81,0,0,0,2.34-7.73c.05-.24.1-.47.14-.7s.09-.47.13-.7.08-.46.11-.69c.09-.56.16-1.12.21-1.67,0-.24,0-.48.06-.73s0-.23,0-.35,0-.43,0-.65C175.22,367.45,175.21,366.78,175.17,366.13ZM93.48,222.32c-1.47,2.55-7.66,3.4-10.42,2.27s2.11-21.53,6-23.63S95,219.77,93.48,222.32Zm19.19.47c-2.75,1.14-9,.29-10.42-2.26s.39-23.54,4.42-21.36S115.42,221.66,112.67,222.79Z" style="fill:#7E57C2"></path><path d="M175.17,366.13q0-.33-.06-.69c0-.25-.06-.5-.1-.77s-.08-.52-.12-.8a0,0,0,0,1,0,0c-.1-.58-.22-1.19-.37-1.85,0-.07,0-.13,0-.2-.06-.27-.12-.54-.19-.82s-.17-.7-.26-1.07c-.19-.74-.39-1.52-.62-2.33-.1-.4-.22-.8-.34-1.21-.49-1.75-1.07-3.63-1.7-5.62-.21-.68-.44-1.38-.67-2.08l-.36-1.11-.76-2.27-.79-2.34-.82-2.35c-1.4-4-2.92-8.28-4.48-12.55l-.93-2.56c-.59-1.61-1.19-3.22-1.78-4.82-.11-.28-.21-.57-.31-.85-.89-2.4-1.77-4.77-2.64-7.09l-.48-1.3-.3-.81-.3-.81-2-5.5-.31-.84c-.13-.38-.27-.75-.41-1.11-.39-1.08-.78-2.13-1.15-3.16-.25-.71-.5-1.4-.75-2.06l-.46-1.29L151,294q-.22-.61-.42-1.2c-.09-.25-.17-.5-.26-.73-.24-.71-.47-1.37-.68-2v0c-.11-.33-.22-.66-.31-1-.24-.72-.45-1.38-.63-2-.05-.15-.09-.31-.14-.46a1.67,1.67,0,0,1,0-.18c-.11-.36-.2-.7-.29-1-.13-.48-.23-.91-.31-1.28,0-.09,0-.17-.05-.25l0-.14a4.2,4.2,0,0,1-.1-.89,3.14,3.14,0,0,1,0-.51q.09-.56.27-1.23c.12-.45.29-.93.48-1.46.67-1.83,1.7-4.09,2.86-6.59.33-.71.68-1.44,1-2.19,1-2.24,2.13-4.61,3.12-7,.33-.79.65-1.59,1-2.37.6-1.58,1.14-3.14,1.57-4.65.21-.75.4-1.49.55-2.21a21.5,21.5,0,0,0,.44-3,10.46,10.46,0,0,0-.47-4.35,4.35,4.35,0,0,0-.25-.59,9.77,9.77,0,0,0-.91-1.57l-.26-.37a19.9,19.9,0,0,0-2-2.22c-.44-.43-.92-.86-1.42-1.28-.26-.22-.52-.44-.8-.66a70.34,70.34,0,0,0-8.14-5.49l-1.31-.77-.81-.46-1.17-.67-.66-.37-1.29-.71c-1.94-1.07-3.82-2.06-5.51-3l-1.09-.6-1-.57c-.66-.37-1.28-.72-1.84-1.06l-.8-.48-.7-.46-.31-.21c-.23-.16-.44-.32-.62-.46a3.88,3.88,0,0,1-.36-.32h0c-.06-.06-.12-.11-.17-.17a4.43,4.43,0,0,1-.6-.84,10.55,10.55,0,0,1-.72-1.5l-.28-.73a2.46,2.46,0,0,1-.14-.38c-.18-.53-.37-1.09-.56-1.7-.15-.45-.29-.92-.43-1.4h0c-.09-.33-.19-.66-.29-1-.34-1.22-.7-2.52-1.09-3.89-.28-1-.56-2-.87-3,0-.16-.09-.32-.14-.48-.42-1.41-.87-2.85-1.37-4.29-.18-.54-.37-1.08-.57-1.61l-.58-1.56,0,0c-.21-.53-.43-1.06-.65-1.58s-.4-.94-.62-1.4c-.47-1-1-2-1.5-3-.12-.23-.25-.46-.38-.68s-.29-.5-.44-.74l-.28-.45c-.24-.38-.48-.76-.74-1.12s-.63-.89-1-1.31c-2.81-3.59-15-5-25.16-3.52-.26,0-.53.07-.79.12A36.59,36.59,0,0,0,82,190c-.23.07-.45.15-.66.23s-.43.15-.64.24a15.13,15.13,0,0,0-3.84,2.08,8.32,8.32,0,0,0-.77.66,6.89,6.89,0,0,0-.69.75h0a9,9,0,0,0-.53.76c-.06.1-.13.2-.19.31l-.19.32a4,4,0,0,0-.2.35q-.41.72-.84,1.59c-.15.29-.3.59-.45.91-.3.63-.61,1.3-.92,2-1.1,2.47-2.28,5.35-3.43,8.28-.17.41-.33.83-.49,1.25s-.33.83-.49,1.25-.33.83-.49,1.24c-.24.62-.47,1.23-.71,1.83L65.3,217c-.14.37-.29.74-.43,1.1-.21.54-.41,1.06-.62,1.56-.13.33-.25.65-.38,1s-.15.38-.23.57c-.23.55-.44,1.07-.64,1.54l-.45,1c-.24.51-.45.93-.62,1.24l-.08.13a3.83,3.83,0,0,1-.24.31l0,0c-.25.28-.58.64-1,1.05-1,1-2.31,2.27-3.85,3.76-.45.43-.9.88-1.37,1.34l-.7.7L54,233c-1,1-2,2-2.9,3-.47.52-.94,1-1.4,1.57-.23.27-.46.53-.68.8-.44.52-.87,1-1.28,1.58a33,33,0,0,0-2.65,3.91c-.28.51-.53,1-.74,1.49a10.16,10.16,0,0,0-.38,1l-.12.39a.74.74,0,0,0,0,.14c0,.12-.07.24-.1.37a45.56,45.56,0,0,0-1.1,8.08c0,.76-.09,1.56-.13,2.39l0,.75,0,.94c0,1-.05,2-.06,3-.07,5.9.12,12.86.47,20.46.94,20.52,3.05,45.71,4.37,67.21a468.9,468.9,0,0,1,.57,50.68l8.6,0h2.4l96.64-.3,6.68,0,.33-.48c.06-.11.15-.23.24-.37.85-1.3,2.57-4,4.48-7.52l.46-.84q.23-.42.45-.87c.21-.39.41-.8.62-1.2.62-1.22,1.23-2.51,1.83-3.83.2-.44.39-.89.59-1.33,0,0,0,0,0,0,.19-.45.38-.9.56-1.36s.37-.92.55-1.39a51.81,51.81,0,0,0,2.34-7.73c.05-.24.1-.47.14-.7s.09-.47.13-.7.08-.46.11-.69c.09-.56.16-1.12.21-1.67,0-.24,0-.48.06-.73s0-.23,0-.35,0-.43,0-.65C175.22,367.45,175.21,366.78,175.17,366.13ZM93.48,222.32c-1.47,2.55-7.66,3.4-10.42,2.27s2.11-21.53,6-23.63S95,219.77,93.48,222.32Zm19.19.47c-2.75,1.14-9,.29-10.42-2.26s.39-23.54,4.42-21.36S115.42,221.66,112.67,222.79Z" style="opacity:0.30000000000000004"></path><path d="M162.05,400.55l-6.61,0h-.07S164,379.48,164,369.15,139.26,293.68,139.39,283,155,258.43,153.8,249.38s-24.64-17.32-29.36-22-8.12-31.6-12.32-34.89-27.87-3.12-32,4-7.6,26.21-11,33.52S50.53,242.14,50,254.23s28,90.48,24.1,109.88-11.44,31.25-15.38,36.76h-2.4s11.23-27.43,11.49-39.2c.22-9.39-17.75-59-25-78.7h0C42,265,42,250.63,44.31,245.41,47.69,237.64,60.79,227,61.94,225c2.22-3.91,9.77-26.39,13.43-31,6.16-7.8,34-7.63,38.46-2,8.25,10.59,9.92,29.14,13.24,32.73s28.1,13.29,31.45,22.47-10.67,29.86-10.83,35.57,26.57,69.22,27.48,83.32S162.05,400.55,162.05,400.55Z" style="fill:#455a64"></path></g><g id="freepik--character-1--inject-60"><path d="M151.74,283.06c14.23,31.73,48.6,84.49,64,71.43,23-19.54,38.56-62.74,44.73-80.21,3.46-9.79-46.39-26.17-49.45-17.29-4.35,12.64-11.16,39-15.11,42.76-2.08,2-18.39-21-30.76-31.84C147.3,252.24,147.2,272.92,151.74,283.06Z" style="fill:#eb9481"></path><path d="M271.7,253.32c-2.44,10.65-16,30.49-21.07,34S210.9,270,210.31,263.66s10.55-42.58,19.3-49.51S274.24,242.28,271.7,253.32Z" style="fill:#eb9481"></path><path d="M211.27,256.33s-2-14.08-7.84-25.18c-4.89-9.33-13.21-22.63-8.29-25.45,10.1-5.78,30.83,27.4,30.83,27.4s6.79,16.11-2.7,22.72C217.31,260,211.27,256.33,211.27,256.33Z" style="fill:#eb9481"></path><path d="M218.3,227.51c1.81,5.5,7.26.21,7.26.21s-6,9.5-1.95,14.45c3.93,4.76,10.29-1.86,10.75-2.32-.31.5-5.6,9.37-1,13.93,4.78,4.72,10-3,10.35-3.52-.14.57-1.95,8.14,2.33,10.81,7.35,4.57,12.5-14.65,18.71-17.9,0,0,6.71,9.9,7,10.15,0,0,5.27-18.19.42-26.33a6,6,0,0,0-7.06-2.75s2.35-5.68-1.15-9.38c-1.81-1.89-6.44-.69-6.44-.69s1.69-4.62-1.63-7.72c-2.65-2.48-6.89-.89-6.89-.89s-.43-5.19-4-6.85C237.89,195.36,214.43,215.73,218.3,227.51Z" style="fill:#eb9481"></path><path d="M248.25,205.71a.08.08,0,0,0-.09-.14c-9.35,4.81-18.15,13-22.93,22.41-.15.31.28.7.52.39C232.53,219.58,239.26,212.32,248.25,205.71Z" style="fill:#263238"></path><path d="M257.54,214c.1-.07,0-.23-.13-.17-9.61,5-19.27,14.47-23.5,26-.14.39.12.89.33.45C237.63,232.85,249.42,219.93,257.54,214Z" style="fill:#263238"></path><path d="M243.68,251.17c4.49-10.9,12-19.27,21-26.75.12-.1,0-.25-.15-.2-5.38,2.47-10.6,7.83-14.3,12.35A31.1,31.1,0,0,0,243.3,251C243.26,251.23,243.59,251.4,243.68,251.17Z" style="fill:#263238"></path><path d="M225.36,227.76c-.19.37.56.23.39.61-.74,1.59-4.38,11.53-1.37,13.82,2.41,1.83,6.54-.14,7.83-1.52l3.24-3.47-1.84,4.39a19.43,19.43,0,0,0-1.51,6.11,6.92,6.92,0,0,0,1.59,5.45,4,4,0,0,0,4.92.87,12,12,0,0,0,4.28-4.23l3.05-4.73-1.33,5.44a18.43,18.43,0,0,0-.52,4.63,7.58,7.58,0,0,0,1.16,4.18,3.57,3.57,0,0,0,3.46,1.51,8,8,0,0,0,3.71-2.42,62.93,62.93,0,0,0,5.88-7.78c.94-1.35,1.87-2.71,2.88-4a11.5,11.5,0,0,1,3.56-3.42,12.66,12.66,0,0,0-3.19,3.68c-.89,1.38-1.72,2.8-2.55,4.22a52.83,52.83,0,0,1-5.59,8.26,9.25,9.25,0,0,1-4.36,3,5.09,5.09,0,0,1-5.19-2,9.26,9.26,0,0,1-1.57-5.16,20,20,0,0,1,.5-5.16l1.72.71a13.75,13.75,0,0,1-5,5,5.77,5.77,0,0,1-3.85.6,6.48,6.48,0,0,1-3.34-1.91,8.78,8.78,0,0,1-2-6.91,21.23,21.23,0,0,1,1.77-6.69l1.41.92c-1.7,1.7-6.08,4.4-10.18,2C218.42,240,224.18,229.58,225.36,227.76Z" style="fill:#263238"></path><path d="M225.56,227.72a11.41,11.41,0,0,1-3.24,1.46,2.66,2.66,0,0,1-2.65-.63,5.46,5.46,0,0,1-1.14-2.9c-.17-1.15-.28-2.38-.34-3.64a9.41,9.41,0,0,0-.93,3.71,5.47,5.47,0,0,0,1.24,4,3.87,3.87,0,0,0,2.06,1,4.07,4.07,0,0,0,2.16-.34A6.27,6.27,0,0,0,225.56,227.72Z" style="fill:#263238"></path><path d="M208,258l51.89,36.14s-31,64.23-50.15,64.06-46.83-48.29-56.41-69.08-3.85-38.41,15.45-19.44S195,296.37,195.6,296.12C196.82,295.62,208,258,208,258Z" style="fill:#7E57C2"></path><path d="M259.86,294.09s-21.49,44.55-39.75,59.34c-3.66,3-7.19,4.75-10.4,4.71-19.16-.17-46.83-48.28-56.42-69.06-5.93-12.88-6-24.54-.59-27,3.32-1.55,8.71.36,16.06,7.59,19.41,19.08,26.21,26.74,26.84,26.48C196.81,295.62,208,258,208,258Z" style="fill:#7E57C2"></path><path d="M227.74,345.85c-.63.74-1.28,1.45-1.92,2.15a48.82,48.82,0,0,1-19.23,7,39.92,39.92,0,0,1-5.68.23l-1.18-.74a40.52,40.52,0,0,0,6.79-.17,34.73,34.73,0,0,0,7.9-1.83l1.94-.63,1.87-.79c.63-.27,1.27-.49,1.88-.8l1.81-.92A50.73,50.73,0,0,0,227.74,345.85Zm-39.37-56.58a55.33,55.33,0,0,0-16,10.93,85.2,85.2,0,0,0-8.31,9.52c.12.23.26.47.4.69a83.21,83.21,0,0,1,8.43-9.66,55.76,55.76,0,0,1,13.13-9.57l1.82-.92a10.37,10.37,0,0,1,1-.45Zm44.83,3.27a82.13,82.13,0,0,0-15.43-5.71c-.55-.13-1.11-.27-1.67-.38l-1.09-.23a43.92,43.92,0,0,0-13.63-.69c-.66.09-1.32.19-2,.32-.08.23-.16.48-.23.7.76-.13,1.53-.24,2.3-.34a43.39,43.39,0,0,1,12.66.53l1.12.2c.79.17,1.58.34,2.37.53a82.12,82.12,0,0,1,15.3,5.63,206.76,206.76,0,0,1,21.25,12,5.25,5.25,0,0,0,.28-.51A204.29,204.29,0,0,0,233.2,292.54Zm5.38-13.26A50.52,50.52,0,0,0,215,286.22l-.88.52a56.42,56.42,0,0,0-5.23,3.54c-8.79,6.68-15.8,15.27-22.47,23.91-3.34,4.34-6.62,8.7-10.08,12.93l-.76.91.39.56.88-1c3.48-4.24,6.77-8.6,10.13-12.93,6.67-8.61,13.67-17.13,22.36-23.72a55.64,55.64,0,0,1,5.9-3.95c.28-.17.56-.34.85-.49a52.73,52.73,0,0,1,7.44-3.44l1.92-.7c.63-.23,1.3-.38,2-.57l2-.55,2-.4a34.79,34.79,0,0,1,8.07-.84h.12Zm-63.7-3.58a54.37,54.37,0,0,1-11.16,3.58l-2,.39c-.66.12-1.34.16-2,.25l-2,.24-2,.08a32.94,32.94,0,0,1-5.62-.1l.18.67a51.56,51.56,0,0,0,25.25-4.55C175.27,276.07,175.08,275.88,174.88,275.7ZM160.1,263a119.09,119.09,0,0,1-11.31,6.78q0,.4,0,.84a116.56,116.56,0,0,0,12.06-7.23C160.58,263.22,160.34,263.08,160.1,263Z" style="fill:#fff"></path><path d="M247.59,300.12c-1.37-1.14-2.76-2.24-4.15-3.35q-4.23-3.34-8.48-6.67c-5.64-4.4-11.39-8.64-17.2-12.82-3.29-2.37-6.52-4.87-9.92-7.09a.15.15,0,0,0-.18.24c2.69,2.38,5.58,4.55,8.38,6.81s5.57,4.55,8.42,6.76q8.46,6.58,17.12,12.91c1.62,1.18,3.2,2.44,4.87,3.55.86.57,1.67,1.21,2.53,1.77s1.78,1,2.63,1.64a.09.09,0,0,0,.1-.14C250.31,302.55,249,301.28,247.59,300.12Z" style="fill:#263238"></path><path d="M196.05,294.94a130,130,0,0,0-4.88,16.38c-.68,2.74-1.21,5.52-1.73,8.3a61.35,61.35,0,0,0-1.11,8.32c0,.11.15.11.18,0,.85-2.67,1.49-5.46,2.11-8.19s1.3-5.49,1.92-8.25c1.24-5.5,2.69-11,3.77-16.51A.13.13,0,0,0,196.05,294.94Z" style="fill:#263238"></path><path d="M220.11,353.43c-3.66,3-7.19,4.75-10.4,4.71-19.16-.17-46.83-48.28-56.42-69.06-5.93-12.88-6-24.54-.59-27Z" style="opacity:0.1"></path><path d="M190.39,400.28H65.81c-1.37-2.52,19-111.65,61.06-142.38,9.32-6.82,25.86-2.43,30.46,4.2C180.45,295.42,190.39,400.28,190.39,400.28Z" style="fill:#7E57C2"></path><path d="M183.92,351.83a88.73,88.73,0,0,1-9.13-3.8c-4.17-2-8.22-4.21-12.21-6.55l-.58-.34c-4.13-2.43-8.18-5-12.22-7.6l-.57-.37c-.91-.59-1.81-1.18-2.73-1.76-9.18-5.91-18.3-12-28.15-16.74a61.68,61.68,0,0,0-15.4-5.28,33,33,0,0,0-8.12-.45c-.68.05-1.34.14-2,.23-.46.09-.92.15-1.39.25.07-.17.13-.32.21-.48l1.12-.22c.68-.08,1.36-.18,2-.24a34.4,34.4,0,0,1,8.23.44,62.31,62.31,0,0,1,15.54,5.3c9.9,4.74,19,10.83,28.24,16.72.9.57,1.8,1.16,2.71,1.73.19.12.39.26.58.37,4.11,2.63,8.24,5.25,12.45,7.72l.59.34c3.89,2.27,7.86,4.42,11.94,6.36a93.66,93.66,0,0,0,8.74,3.64Zm-11.09-52-.42.4c-7.9,7.7-13.8,17.09-19.37,26.47-1.18,2-2.35,4-3.54,6-.1.17-.19.34-.29.5-1.51,2.54-3,5.08-4.6,7.57-1.39,2.19-2.83,4.35-4.37,6.44-.14.2-.27.39-.42.58a67.41,67.41,0,0,1-5,6,40.34,40.34,0,0,1-6.13,5.33l-.83.59c-.27.19-.58.34-.87.52l-1.75,1a30.49,30.49,0,0,1-3.73,1.59,51,51,0,0,1-16,2.59,74.37,74.37,0,0,1-16.2-1.83c-5.1-1.09-10.1-2.54-15.11-4,0,.17-.08.33-.13.48,5,1.47,10,2.95,15.12,4A75.33,75.33,0,0,0,105.47,366a51.36,51.36,0,0,0,16.21-2.61,29.52,29.52,0,0,0,3.81-1.6l1.8-1a9.77,9.77,0,0,0,.88-.53l.85-.6a39.6,39.6,0,0,0,6.24-5.39,71.34,71.34,0,0,0,5.35-6.44,7,7,0,0,0,.42-.58c1.46-2,2.83-4,4.14-6.1,1.59-2.49,3.11-5,4.61-7.55.11-.17.21-.34.3-.5l3.56-6c5.57-9.37,11.48-18.68,19.29-26.28l.14-.13C173,300.35,172.9,300.07,172.83,299.8Zm5.92,24.34c-.79,1-1.59,2-2.4,3A86.18,86.18,0,0,1,165,338.86c-.82.65-1.64,1.29-2.49,1.9l-.53.38a32,32,0,0,1-3.72,2.25l-.89.48c-.3.17-.63.28-.93.42l-1.87.8a30.86,30.86,0,0,1-3.89,1.12,46.73,46.73,0,0,1-9.67,1h-.79c-1.92,0-3.85-.15-5.77-.36a74,74,0,0,1-15.85-3.8c-5.17-1.77-10.18-3.95-15.2-6.11a132.73,132.73,0,0,0-15.35-5.83c-1.55-.44-3.12-.83-4.72-1.12l-.15.45a46.49,46.49,0,0,1,4.73,1.12,132,132,0,0,1,15.28,5.84c5,2.17,10.05,4.36,15.22,6.16a75.72,75.72,0,0,0,16,3.86c1.8.2,3.61.34,5.41.37.27,0,.52,0,.79,0a46.84,46.84,0,0,0,10.22-1,35.23,35.23,0,0,0,4-1.13l1.9-.82c.32-.15.64-.26.94-.42l.92-.5a29.46,29.46,0,0,0,4-2.45c.18-.12.36-.24.54-.38.78-.56,1.54-1.15,2.3-1.76a85.06,85.06,0,0,0,11.44-11.8c.7-.84,1.38-1.7,2.06-2.56C178.87,324.71,178.81,324.42,178.75,324.14Zm-12.88-45.35c-.71.18-1.43.34-2.15.49l-2,.39c-.66.12-1.34.16-2,.25l-2,.24-2,.08a34.8,34.8,0,0,1-8.1-.43,42.91,42.91,0,0,1-12.05-4l-1-.5c-.71-.37-1.42-.76-2.12-1.16a80.63,80.63,0,0,1-13.14-9.61l-.45.45A83.21,83.21,0,0,0,132,274.74l1.5.83,1,.51a44.73,44.73,0,0,0,12.92,4.42,48.53,48.53,0,0,0,18.71-1ZM158.58,264a95.46,95.46,0,0,1-17.33,9.17,57.14,57.14,0,0,1-6.76,2.16l-1,.25a56.84,56.84,0,0,1-8.1,1.26l-2,.13c-.67.05-1.35,0-2,0h-2l-2-.16a35.24,35.24,0,0,1-7.3-1.22c-.14.19-.29.39-.42.59a50.42,50.42,0,0,0,24.92-.09l1-.26a54.28,54.28,0,0,0,6-2A94.84,94.84,0,0,0,159,264.6Zm30.65,125.57c-1.07,0-2.13.09-3.2.12H186l-.62.05a42.82,42.82,0,0,0-15,4.47,68.41,68.41,0,0,0-9.6,6.07h.64a67.53,67.53,0,0,1,9.15-5.7,42.28,42.28,0,0,1,15.2-4.44l.38,0h.25c1,0,2-.11,3-.1C189.26,389.86,189.25,389.71,189.23,389.56Zm.53,4.71q-1.66-2.11-3.45-4.17c-.11-.14-.24-.27-.36-.41l-.42-.49a61.93,61.93,0,0,0-12.25-10.94,33,33,0,0,0-7.4-3.62c-.64-.22-1.32-.4-2-.59s-1.35-.32-2-.42c-1.36-.25-2.74-.27-4.1-.41a42.43,42.43,0,0,0-16.18,2.58A73.77,73.77,0,0,0,127,383.28c-8.18,5.27-15.67,11.49-23.65,17h.36c7.94-5.42,15.39-11.52,23.49-16.69a73.83,73.83,0,0,1,14.55-7.41,42.25,42.25,0,0,1,16-2.53c1.34.15,2.71.17,4.05.42.67.1,1.32.29,2,.42s1.32.36,2,.58a33.12,33.12,0,0,1,7.29,3.58,61.45,61.45,0,0,1,12.12,10.89l.18.2.35.4c1.44,1.67,2.84,3.37,4.2,5.12C189.84,394.94,189.8,394.62,189.76,394.27Z" style="fill:#fff"></path><path d="M246.3,413.44H166.1c-6.84,0,3.06-19.49,28-27S254.18,406.13,246.3,413.44Z" style="fill:#37474f"></path><path d="M214.83,413.44a25,25,0,0,1,1.17-6.51,27.85,27.85,0,0,1,2.7-6.09,22.42,22.42,0,0,1,4.23-5.17,19.6,19.6,0,0,1,5.59-3.56c-.45.33-.9.65-1.35.95l-.68.46-.62.53-1.26,1-1.14,1.15a27.76,27.76,0,0,0-3.91,5.12,38.78,38.78,0,0,0-2.84,5.83c-.39,1-.75,2-1.05,3.09S215.08,412.37,214.83,413.44Z" style="fill:#263238"></path><path d="M224.33,394.9a48.89,48.89,0,0,1,6.89,2.88,50,50,0,0,1,6.44,3.84,29.33,29.33,0,0,1,5.58,5,17.48,17.48,0,0,1,2.09,3.16,9.47,9.47,0,0,1,1,3.62,10.51,10.51,0,0,0-1.4-3.38,17.39,17.39,0,0,0-2.23-2.89,38.33,38.33,0,0,0-5.59-4.73c-2-1.44-4.1-2.72-6.22-4-1.07-.63-2.15-1.23-3.24-1.81S225.44,395.48,224.33,394.9Z" style="fill:#263238"></path><path d="M110.32,271.27C85,300.62,50.77,352.43,64.74,363.89c23,18.84,90,29.7,105.43,31.55,6.65.8,20-42.61,15.51-48.23s-75.35-9.58-75.85-13.93c-.28-2.47,10.49-24,17.42-50.3C135.23,252.6,117.47,263,110.32,271.27Z" style="fill:#eb9481"></path><path d="M174.06,343.63s20.36-.15,33.67.37c7.43.29,20.12,1.93,25.48,4.64,8,4.06,38.94,26.14,33.75,33.75-4.7,6.89-28.86-15.45-28.86-15.45s26.38,20.39,19.19,27.65S226.16,373,226.16,373s26.63,21.55,18,27.87c-6.5,4.77-29.66-20.16-29.66-20.16s22.76,18.69,16.3,23.88c-7.15,5.74-30-15.93-30-15.93-18.66,10.44-31.82,7.78-41,4.77C157.71,392.68,174.06,343.63,174.06,343.63Z" style="fill:#eb9481"></path><path d="M229.43,359.31c3.18,2.28,6.42,4.57,9.39,7.13s5.86,5.22,8.58,8a68.23,68.23,0,0,1,9.54,12c-5.38-7.36-15.88-16.68-18.85-19.24s-5.8-5.26-8.77-7.81C229.25,359.35,229.35,359.25,229.43,359.31Z" style="fill:#263238"></path><path d="M220,369.87c3.94,3.09,8,6,11.78,9.28s8.94,8,12.49,11.49c.27.27,0,.77-.29.51-3.69-3.35-9.16-7.94-12.89-11.26s-7.34-6.77-11.17-9.93C219.85,369.91,219.93,369.82,220,369.87Z" style="fill:#263238"></path><path d="M210.27,377.48c6.26,4.41,11.71,10,16.91,15.57.26.27-.05.32-.33.05-5.53-5.28-9.82-9.47-16.74-15.41C210,377.6,210.14,377.38,210.27,377.48Z" style="fill:#263238"></path><path d="M174.35,341,150,396.33s-85.19-19.21-90.13-35.4,21.76-59.48,45.85-86.45c23.7-26.54,27.2-8.54,21.31,12s-15.56,44.19-14.48,46S174.35,341,174.35,341Z" style="fill:#7E57C2"></path><path d="M118,314c-.06.15-.11.31-.17.47a60.55,60.55,0,0,0-14.92-5.06,33,33,0,0,0-8.12-.45c-.68.05-1.34.14-2,.23s-1.33.21-2,.39c-1.33.29-2.59.8-3.89,1.2a41.94,41.94,0,0,0-13.57,8.42l.65-1.11a41.6,41.6,0,0,1,12.77-7.72c1.31-.41,2.59-.93,3.94-1.22.67-.18,1.35-.27,2-.41s1.36-.18,2-.24a34.4,34.4,0,0,1,8.23.44A61.05,61.05,0,0,1,118,314Zm45.1,27.12-.59-.34c-.79-.46-1.57-.93-2.33-1.39l-1.42-.16c1.07.64,2.14,1.3,3.22,1.93l.58.34c3.06,1.8,6.15,3.52,9.31,5.11l.25-.57C169.08,344.48,166.08,342.83,163.12,341.1Zm-16.64-3.39c-.61,1-1.24,2-1.87,3-1.39,2.19-2.83,4.35-4.37,6.44-.14.2-.27.39-.42.58a67.41,67.41,0,0,1-5,6,40.34,40.34,0,0,1-6.13,5.33l-.83.59c-.27.19-.58.34-.87.52l-1.75,1a30.49,30.49,0,0,1-3.73,1.59,51,51,0,0,1-16,2.59,74.37,74.37,0,0,1-16.2-1.83c-5.34-1.14-10.58-2.69-15.84-4.21a145.16,145.16,0,0,0-14.15-3.61c0,.16,0,.33,0,.48,4.74.89,9.39,2.27,14,3.61,5.25,1.54,10.5,3.1,15.86,4.25A75.33,75.33,0,0,0,105.47,366a51.36,51.36,0,0,0,16.21-2.61,29.52,29.52,0,0,0,3.81-1.6l1.8-1a9.77,9.77,0,0,0,.88-.53l.85-.6a39.6,39.6,0,0,0,6.24-5.39,71.34,71.34,0,0,0,5.35-6.44,7,7,0,0,0,.42-.58c1.46-2,2.83-4,4.14-6.1.7-1.08,1.38-2.19,2.05-3.29Zm17.34,2.08c-.42.33-.85.66-1.29,1l-.53.38a32,32,0,0,1-3.72,2.25l-.89.48c-.3.17-.63.28-.93.42l-1.87.8a30.86,30.86,0,0,1-3.89,1.12,46.73,46.73,0,0,1-9.67,1h-.79c-1.92,0-3.85-.15-5.77-.36a74,74,0,0,1-15.85-3.8c-5.17-1.77-10.18-3.95-15.2-6.11a132.73,132.73,0,0,0-15.35-5.83c-5.26-1.5-10.87-2.32-16.31-1.26a19.49,19.49,0,0,0-5,1.73l-.3.63a20,20,0,0,1,5.36-1.93c5.35-1,10.89-.22,16.09,1.28a132,132,0,0,1,15.28,5.84c5,2.17,10.05,4.36,15.22,6.16a75.72,75.72,0,0,0,16,3.86c1.8.2,3.61.34,5.41.37.27,0,.52,0,.79,0a46.84,46.84,0,0,0,10.22-1,35.23,35.23,0,0,0,4-1.13l1.9-.82c.32-.15.64-.26.94-.42l.92-.5a29.46,29.46,0,0,0,4-2.45c.18-.12.36-.24.54-.38.53-.38,1.06-.79,1.6-1.2ZM119.2,264.53c-.44-.39-.87-.77-1.3-1.17l-.55.36,1.43,1.28a86.86,86.86,0,0,0,10.66,8.15c0-.26,0-.51,0-.76A86,86,0,0,1,119.2,264.53Zm6.23,12.3-2,.13c-.67.05-1.35,0-2,0h-2l-2-.16a35.62,35.62,0,0,1-8-1.42c-1.13-.34-2.26-.73-3.37-1.18l-.25.28-.23.27a36.14,36.14,0,0,0,3.66,1.3,48.82,48.82,0,0,0,19.91,1.1c0-.25.07-.5.11-.75C127.91,276.59,126.67,276.73,125.43,276.83Zm32.35,96.39a42.43,42.43,0,0,0-16.18,2.58A73.77,73.77,0,0,0,127,383.28c-2.56,1.66-5.06,3.4-7.53,5.19a3,3,0,0,1,.4.12h0c2.4-1.74,4.83-3.41,7.32-5a73.83,73.83,0,0,1,14.55-7.41,42.25,42.25,0,0,1,16-2.53c.7.08,1.41.12,2.12.18l.19-.43C159.31,373.34,158.54,373.29,157.78,373.22Z" style="fill:#fff"></path><path d="M140.21,387.19c.83-1.57,1.63-3.16,2.43-4.75q2.42-4.81,4.8-9.67c3.16-6.41,6.13-12.91,9-19.45,1.65-3.71,3.43-7.38,4.92-11.16a.15.15,0,0,0-.28-.13c-1.77,3.13-3.31,6.4-5,9.6s-3.31,6.39-4.9,9.62q-4.71,9.63-9.13,19.4c-.83,1.83-1.74,3.64-2.48,5.5-.39,1-.85,1.87-1.22,2.83s-.67,2-1.07,2.91a.09.09,0,0,0,.16.07C138.39,390.35,139.36,388.81,140.21,387.19Z" style="fill:#263238"></path><path d="M151.85,392.54l-1.71,3.87-.06.13-.15,0c-8.07-1.5-16.08-3.3-24-5.31S110,387,102.21,384.42a212.6,212.6,0,0,1-23-8.79,85.9,85.9,0,0,1-10.89-5.87,38.31,38.31,0,0,1-4.91-3.8,12.37,12.37,0,0,1-3.52-5,13,13,0,0,0,3.86,4.65A37.49,37.49,0,0,0,68.77,369a102,102,0,0,0,11,5.29c7.53,3.12,15.27,5.79,23,8.29s15.63,4.82,23.5,7.06S142.09,394,150,396.14l-.21.1Z" style="fill:#263238"></path><path d="M173.4,343.16l.85-2.2.09.15c-8.55-.58-17.08-1.28-25.6-2.17s-17-1.87-25.51-3.14c-2.12-.33-4.24-.67-6.36-1.08-1.07-.22-2.12-.43-3.21-.73-.28-.08-.55-.16-.85-.27a3.88,3.88,0,0,1-.48-.22,2.11,2.11,0,0,1-.34-.22,1.35,1.35,0,0,1-.27-.33,2.56,2.56,0,0,1-.11-.24.19.19,0,0,1,0-.12,3.49,3.49,0,0,1,0-1.15c.06-.28.11-.58.17-.84,1.09-4.25,2.46-8.27,3.85-12.33,2.79-8.11,5.81-16.12,9-24.07-2.47,8.2-5,16.37-7.53,24.54-1.21,4.09-2.55,8.19-3.49,12.27-.06.25-.09.49-.14.73a3.47,3.47,0,0,1,0,.44s0,0,0,0a.52.52,0,0,0-.06-.16.57.57,0,0,0-.14-.17s0,0,0,0a1.61,1.61,0,0,0,.25.1,7.06,7.06,0,0,0,.69.22c1,.26,2,.47,3,.66,2.08.39,4.19.72,6.3,1q6.33,1,12.69,1.79l12.71,1.72c8.48,1.12,17,2.32,25.43,3.55l.15,0-.06.13Z" style="fill:#263238"></path><path d="M125.59,299.48a22,22,0,0,1-2.27,4.09,16.44,16.44,0,0,1-3.11,3.5c.78-1.36,1.61-2.65,2.49-3.93A32.24,32.24,0,0,1,125.59,299.48Z" style="fill:#263238"></path><path d="M150.41,280.56c-7.22,2.05-20.26-8.54-25.63-17.36-.36-.61,1.09-25.54.87-30.5-.05-1,31.51,6.16,31.51,6.16s-2.6,10.55-2.15,19.21C155.05,258.8,157.4,278.56,150.41,280.56Z" style="fill:#eb9481"></path><path d="M125.21,248.3c14.75,10.42,29.12,6.42,29.77,6.23a86.26,86.26,0,0,1,2.18-15.67s-31.56-7.19-31.51-6.17C125.75,235,125.49,241.76,125.21,248.3Z" style="fill:#263238"></path><path d="M157,218.32c.81,7.36,6.7,12.74,13.15,12s11-7.24,10.22-14.6-6.7-12.74-13.15-12S156.2,211,157,218.32Z" style="fill:#7E57C2"></path><path d="M153.28,219.2c.9,8.18,7.45,14.18,14.62,13.39s12.27-8.06,11.37-16.25-7.45-14.17-14.62-13.38S152.38,211,153.28,219.2Z" style="fill:#c7c7c7"></path><path d="M121.29,195.25c-3.44,11.05,2.2,43,10,50.21,11.34,10.4,30,11.5,38.87-2.16,8.59-13.24.49-54.8-8.26-61.33C149,172.36,126.38,178.94,121.29,195.25Z" style="fill:#eb9481"></path><path d="M147.88,215.34c0-.08-.15.13-.13.22.48,2.14.67,4.66-1.14,5.75-.05,0,0,.14,0,.12C149,220.64,148.68,217.29,147.88,215.34Z" style="fill:#263238"></path><path d="M145.53,213.46c-3.51.4-2.45,7.39.8,7S148.47,213.13,145.53,213.46Z" style="fill:#263238"></path><path d="M160.32,213.66c0-.08.18.08.19.17.26,2.17.92,4.62,3,5,.06,0,.07.12,0,.12C161.06,219,160.21,215.76,160.32,213.66Z" style="fill:#263238"></path><path d="M161.91,211.11c3.44-.79,4.76,6.15,1.58,6.88S159,211.77,161.91,211.11Z" style="fill:#263238"></path><path d="M142.29,210.69a26.12,26.12,0,0,0,2.56-1.37,4.66,4.66,0,0,0,2.35-1.88,1.49,1.49,0,0,0-.51-1.75,3.69,3.69,0,0,0-3.75.18,5.41,5.41,0,0,0-2.74,2.79A1.59,1.59,0,0,0,142.29,210.69Z" style="fill:#263238"></path><path d="M164.08,207.18a25.26,25.26,0,0,1-2.89-.3,4.62,4.62,0,0,1-2.88-.86,1.49,1.49,0,0,1-.19-1.82,3.69,3.69,0,0,1,3.54-1.24,5.46,5.46,0,0,1,3.6,1.56A1.59,1.59,0,0,1,164.08,207.18Z" style="fill:#263238"></path><path d="M149.06,235.62c.6.43,1.22,1,2,1a5.79,5.79,0,0,0,2.24-.89.08.08,0,0,1,.11.1,3,3,0,0,1-2.57,1.59,2.35,2.35,0,0,1-2-1.66C148.82,235.63,149,235.56,149.06,235.62Z" style="fill:#263238"></path><path d="M150.36,228.8a7.44,7.44,0,0,0,5.41,2.53,8.93,8.93,0,0,0,2.67-.28,2.83,2.83,0,0,0,.5-.13,3.49,3.49,0,0,0,.46-.15.54.54,0,0,0,.36-.55h0a1.8,1.8,0,0,0-.06-.22v0l0-.19c-.21-1.67-.75-4.18-.75-4.18.65.22,4,1.14,3.79.28-1.52-7.14-3.21-15.08-6.23-21.86a.2.2,0,0,0-.39.11c1.19,6.92,3.59,13.59,4.89,20.52a12.92,12.92,0,0,0-3.64-.53c-.22.1,1.14,4.83,1.18,5.59a.45.45,0,0,1,0,.08c-2.74.78-5,.25-8-1.22C150.35,228.47,150.2,228.65,150.36,228.8Z" style="fill:#263238"></path><path d="M157.33,230.36a8.92,8.92,0,0,1-3.09,3.24,4,4,0,0,1-2.37.51c-1.79-.19-2.07-1.77-2-3.18a9.64,9.64,0,0,1,.46-2.19A11.45,11.45,0,0,0,157.33,230.36Z" style="fill:#263238"></path><path d="M154.24,233.6a4,4,0,0,1-2.37.51c-1.79-.19-2.07-1.77-2-3.18C151.79,230.84,153.81,231.82,154.24,233.6Z" style="fill:#ff99ba"></path><path d="M126.54,206.62c-1.26,3.17-3.85,10.63-5.33,11.15-1.4-10.37-1.45-19.78,1.12-25.55a21.51,21.51,0,0,1,4.4-6.41C127,188.58,127.89,203.29,126.54,206.62Z" style="fill:#263238;opacity:0.2"></path><path d="M154.27,191.79a10.29,10.29,0,0,1-8.63,5.09,10.51,10.51,0,0,1-9-4.73c-.05-.1-.19,0-.14.08a10.38,10.38,0,0,0,9.2,5.48,10.59,10.59,0,0,0,8.84-5.8A.13.13,0,0,0,154.27,191.79Z" style="fill:#263238"></path><path d="M175.64,175.29a13.1,13.1,0,0,0-6.76-6c-4-1.58-8-.52-12,.61a.09.09,0,0,0,.05.17c3.37-1,6.85-1.73,10.3-.68a13,13,0,0,1,7,5.13,12.59,12.59,0,0,1-2.37,16.31,12.77,12.77,0,0,1-9.74,2.79c-.14,0-.2.19-.06.21a12.85,12.85,0,0,0,13.55-18.58Z" style="fill:#263238"></path><path d="M120.36,201.63s-7.41-9.51-3.82-16.4c2-3.91,10.87-5,10.87-5s2.07-4.52,9-7.44,16.38-1.22,16.38-1.22,6.26-5.2,13.43-2.61c10,3.6,11.29,17.65,2.91,23.7-5.88,4.25-15.59.09-15.59.09-.82.26-8.51,6.94-16.34.41,0,0-4.46,5.61-9.78,3.15A7.75,7.75,0,0,1,120.36,201.63Z" style="fill:#263238"></path><path d="M128,221.34s-7.37-10.23-12-7.59,1,17.54,6.52,19.51a5.59,5.59,0,0,0,7.46-3.11Z" style="fill:#eb9481"></path><path d="M117.66,218c-.09,0-.1.12,0,.15,3.88,1.51,6,5.06,7.43,8.75-1.16-1.41-2.74-2.17-4.63-.78-.1.07,0,.23.11.2a3.44,3.44,0,0,1,3.8,1.15,16.83,16.83,0,0,1,1.86,3c.19.34.81.15.67-.25l0-.08C126.88,225.23,123,218.4,117.66,218Z" style="fill:#263238"></path><path d="M121.83,214.11s-4-15.88-.88-25.61c3.45-10.82,16.47-21.41,31.87-16.92,0,0-17.09,2.21-25.39,16.48-3.81,6.56-.15,25.51-.15,25.51Z" style="fill:#c7c7c7"></path><path d="M138.36,219.51c1.57,8.18-3,15.92-10.15,17.3s-14.27-4.15-15.83-12.32,3-15.93,10.15-17.3S136.8,211.33,138.36,219.51Z" style="fill:#c7c7c7"></path><path d="M134.49,219.77c1.41,7.35-2.68,14.31-9.13,15.55s-12.82-3.72-14.23-11.08,2.68-14.31,9.13-15.54S133.08,212.42,134.49,219.77Z" style="fill:#7E57C2"></path></g><g id="freepik--Device--inject-60"><rect x="266.84" y="393.72" width="7.82" height="5.1" style="fill:#455a64"></rect><rect x="276.98" y="393.38" width="7.82" height="5.1" style="fill:#455a64"></rect><rect x="287.12" y="393.04" width="7.82" height="5.1" style="fill:#455a64"></rect><rect x="297.26" y="392.7" width="7.82" height="5.1" style="fill:#455a64"></rect><rect x="307.39" y="392.37" width="7.82" height="5.1" style="fill:#455a64"></rect><rect x="317.53" y="392.03" width="7.82" height="5.1" style="fill:#455a64"></rect><rect x="327.67" y="391.69" width="7.82" height="5.1" style="fill:#455a64"></rect><rect x="337.8" y="391.36" width="7.82" height="5.1" style="fill:#455a64"></rect><rect x="347.94" y="391.02" width="7.82" height="5.1" style="fill:#455a64"></rect><polygon points="357.67 401.75 264.93 401.75 264.93 395.55 357.67 392.96 357.67 401.75" style="fill:#37474f"></polygon><polygon points="431.55 377.44 287.08 377.44 310.05 269.89 454.52 269.89 431.55 377.44" style="fill:#455a64"></polygon><polygon points="436.89 377.44 292.42 377.44 315.4 269.89 459.87 269.89 436.89 377.44" style="fill:#37474f"></polygon><ellipse cx="379.7" cy="317.44" rx="9.67" ry="8.25" transform="translate(-114.6 341.96) rotate(-42.74)" style="fill:#263238"></ellipse><polygon points="396.03 405.54 324.98 405.54 324.98 400.02 396.03 397.72 396.03 405.54" style="fill:#455a64"></polygon><polygon points="415.35 405.53 377.2 405.53 354.23 345.26 392.38 345.26 415.35 405.53" style="fill:#455a64"></polygon><polygon points="421.63 405.53 383.48 405.53 360.5 345.26 398.65 345.26 421.63 405.53" style="fill:#263238"></polygon></g></svg>