            <svg
              xmlns="http://www.w3.org/2000/svg"
              width="37"
              height="37"
              viewBox="0 0 45 40"
            >
              <defs>
                <path id="a" d="M0 .257h19.659v19.406H0z" />
                <path id="c" d="M0 .151h19.66v19.404H0z" />
                <path id="e" d="M0 .15h12.311v10.067H0z" />
              </defs>
              <g fill="none" fill-rule="evenodd">
                <g transform="translate(0 .136)">
                  <mask id="b" fill="#fff">
                    <use href="#a" />
                  </mask>
                  <path
                    fill="#5FC1CE"
                    d="M6.787 19.377A5.076 5.076 0 008.7 18.185h.002l9.422-9.3c.014-.013.029-.024.042-.037a4.987 4.987 0 000-7.117 5.145 5.145 0 00-7.21 0c-.014.014-.024.028-.038.041l-9.422 9.3.001.002C.157 12.4-.383 14.411.288 16.296c.933 2.623 3.843 4.002 6.5 3.081"
                    mask="url(#b)"
                  />
                </g>
                <g transform="translate(0 9.583)">
                  <mask id="d" fill="#fff">
                    <use href="#c" />
                  </mask>
                  <path
                    fill="#E36767"
                    d="M18.167 10.965l-.042-.038-9.422-9.3-.002.001A5.141 5.141 0 003.411.435C.754 1.355-.644 4.228.289 6.85c.262.737.684 1.371 1.209 1.889h-.001l9.422 9.302c.013.013.024.027.038.04a5.146 5.146 0 007.21 0 4.986 4.986 0 000-7.116"
                    mask="url(#d)"
                  />
                </g>
                <g transform="translate(0 9.583)">
                  <mask id="f" fill="#fff">
                    <use href="#e" />
                  </mask>
                  <path
                    fill="#785B62"
                    d="M6.789 9.932a5.104 5.104 0 001.734-1.019l.005.005 3.783-3.735L8.527 1.45l-.004.004A5.15 5.15 0 003.411.435C.754 1.355-.644 4.228.289 6.85c.933 2.623 3.843 4.002 6.5 3.082"
                    mask="url(#f)"
                  />
                </g>
                <path
                  fill="#37B18E"
                  d="M44.752 20.704c-.933-2.623-3.843-4.002-6.5-3.081a5.077 5.077 0 00-1.913 1.193v-.002l-9.423 9.301-.042.037a4.987 4.987 0 000 7.117 5.146 5.146 0 007.21 0l.038-.042 9.422-9.3-.001-.001c1.34-1.326 1.88-3.337 1.209-5.222"
                />
                <path
                  fill="#E9BC29"
                  d="M44.75 20.703a4.997 4.997 0 00-1.208-1.888l.002-.002-9.423-9.3c-.013-.013-.024-.028-.038-.04a5.145 5.145 0 00-7.21 0 4.987 4.987 0 000 7.116c.014.013.028.023.042.037l9.422 9.3.002-.001a5.142 5.142 0 005.29 1.193c2.657-.92 4.054-3.793 3.122-6.415"
                />
                <path
                  fill="#559048"
                  d="M38.252 17.622c-.662.229-1.246.58-1.735 1.018l-.004-.005-3.784 3.735 3.784 3.735.004-.005a5.148 5.148 0 005.112 1.018c2.657-.92 4.055-3.793 3.122-6.415-.933-2.623-3.843-4.002-6.5-3.081"
                />
              </g>
            </svg>