<svg xmlns="http://www.w3.org/2000/svg" viewBox="0 0 1441 1">
  <g fill="none">
    <path fill="#E6E6E6" d="M2 0v1h7V0H2Zm13 0v1h7V0h-7Zm13 0v1h7V0h-7Zm13 0v1h7V0h-7Zm13 0v1h7V0h-7Zm13 0v1h7V0h-7Zm13 0v1h7V0h-7Zm13 0v1h7V0h-7Zm13 0v1h7V0h-7Zm13 0v1h7V0h-7Zm13 0v1h7V0h-7Zm13 0v1h7V0h-7Zm13 0v1h7V0h-7Zm13 0v1h7V0h-7Zm13 0v1h7V0h-7Zm13 0v1h7V0h-7Zm13 0v1h7V0h-7Zm13 0v1h7V0h-7Zm13 0v1h7V0h-7Zm13 0v1h7V0h-7Zm13 0v1h7V0h-7Zm13 0v1h7V0h-7Zm13 0v1h7V0h-7Zm13 0v1h7V0h-7Zm13 0v1h7V0h-7Zm13 0v1h7V0h-7Zm13 0v1h7V0h-7Zm13 0v1h7V0h-7Zm13 0v1h7V0h-7Zm13 0v1h7V0h-7Zm13 0v1h7V0h-7Zm13 0v1h7V0h-7Zm13 0v1h7V0h-7Zm13 0v1h7V0h-7Zm13 0v1h7V0h-7Zm13 0v1h7V0h-7Zm13 0v1h7V0h-7Zm13 0v1h7V0h-7Zm13 0v1h7V0h-7Zm13 0v1h7V0h-7Zm13 0v1h7V0h-7Zm13 0v1h7V0h-7Zm13 0v1h7V0h-7Zm13 0v1h7V0h-7Zm13 0v1h7V0h-7Zm13 0v1h7V0h-7Zm13 0v1h7V0h-7Zm13 0v1h7V0h-7Zm13 0v1h7V0h-7Zm13 0v1h7V0h-7Zm13 0v1h7V0h-7Zm13 0v1h7V0h-7Zm13 0v1h7V0h-7Zm13 0v1h7V0h-7Zm13 0v1h7V0h-7Zm13 0v1h7V0h-7Zm13 0v1h7V0h-7Zm13 0v1h7V0h-7Zm13 0v1h7V0h-7Zm13 0v1h7V0h-7Zm13 0v1h7V0h-7Zm13 0v1h7V0h-7Zm13 0v1h7V0h-7Zm13 0v1h7V0h-7Zm13 0v1h7V0h-7Zm13 0v1h7V0h-7Zm13 0v1h7V0h-7Zm13 0v1h7V0h-7Zm13 0v1h7V0h-7Zm13 0v1h7V0h-7Zm13 0v1h7V0h-7Zm13 0v1h7V0h-7Zm13 0v1h7V0h-7Zm13 0v1h7V0h-7Zm13 0v1h7V0h-7Zm13 0v1h7V0h-7Zm13 0v1h7V0h-7Zm13 0v1h7V0h-7Zm13 0v1h7V0h-7Zm13 0v1h7V0h-7Zm13 0v1h7V0h-7Zm13 0v1h7V0h-7Zm13 0v1h7V0h-7Zm13 0v1h7V0h-7Zm13 0v1h7V0h-7Zm13 0v1h7V0h-7Zm13 0v1h7V0h-7Zm13 0v1h7V0h-7Zm13 0v1h7V0h-7Zm13 0v1h7V0h-7Zm13 0v1h7V0h-7Zm13 0v1h7V0h-7Zm13 0v1h7V0h-7Zm13 0v1h7V0h-7Zm13 0v1h7V0h-7Zm13 0v1h7V0h-7Zm13 0v1h7V0h-7Zm13 0v1h7V0h-7Zm13 0v1h7V0h-7Zm13 0v1h7V0h-7Zm13 0v1h7V0h-7Zm13 0v1h7V0h-7Zm13 0v1h7V0h-7Zm13 0v1h7V0h-7Zm13 0v1h7V0h-7Zm13 0v1h7V0h-7Zm13 0v1h7V0h-7Zm13 0v1h7V0h-7Zm13 0v1h7V0h-7Zm13 0v1h7V0h-7Zm13 0v1h7V0h-7Z"/>
    <path fill="#FFF" d="M1439 0v1h2V0zM0 0v1h2V0z"/>
  </g>
</svg>