<svg xmlns="http://www.w3.org/2000/svg" viewBox="0 0 500 500" width="400">
                    
                    
                    
                    
                    
                    
                    
                    
                    
                    
                    
                    
                    
                    
                    
                    <ellipse cx="250" cy="416.24" fill="#f5f5f5" rx="193.89" ry="11.32"/>
                    <rect width="91.19" height="9.22" x="226.31" y="298.36" fill="#263238" rx="2.93"/>
                    <path fill="#4338ca" d="M313.76 410.24h3.74l-4.3-102.66h-5.18l5.74 102.66z"/>
                    <path fill="#fff" d="M313.76 410.24h3.74l-4.3-102.66h-5.18l5.74 102.66z" opacity=".6"/>
                    <path fill="#4338ca" d="M279.33 410.24h-3.74l4.3-102.66h5.18l-5.74 102.66z"/>
                    <path fill="#fff" d="M279.33 410.24h-3.74l4.3-102.66h5.18l-5.74 102.66z" opacity=".6"/>
                    <path fill="#4338ca" d="M264.49 410.24h3.74l-4.31-102.66h-5.17l5.74 102.66z"/>
                    <path fill="#fff" d="M264.49 410.24h3.74l-4.31-102.66h-5.17l5.74 102.66z" opacity=".6"/>
                    <path fill="#4338ca" d="M230.05 410.24h-3.74l4.31-102.66h5.17l-5.74 102.66z"/>
                    <path fill="#fff" d="M230.05 410.24h-3.74l4.31-102.66h5.17l-5.74 102.66z" opacity=".6"/>
                    <path fill="#4338ca" d="M313.2 307.57h-5.18l.24 4.37h5.12l-.18-4.37zm-33.49 4.37h5.11l.25-4.37h-5.18l-.18 4.37zm-20.96-4.37.24 4.37h5.12l-.19-4.37h-5.17zm-28.32 4.37h5.13l.24-4.37h-5.18l-.19 4.37z" opacity=".3"/>
                    <path fill="#ffb573" d="m262.08 395.15-8.46 4.5-13.34-18.01 8.47-4.5 13.33 18.01z"/>
                    <path fill="#263238" d="m250.56 396.87 8.84-6.14a.68.68 0 0 1 1 .13l5.29 6.69a1.71 1.71 0 0 1-.41 2.36c-3.11 2.08-4.51 2.81-8.58 5.23-2.51 1.48-8.51 5-12.2 6.61s-5.17-2.09-3.75-3.1c3.37-2.38 7.83-7.06 8.84-10.35a2.67 2.67 0 0 1 .97-1.43Z"/>
                    <path d="m248.76 377.15-8.48 4.49 6.43 8.68 8.28-4.76-6.23-8.41z" opacity=".2"/>
                    <path fill="#4338ca" d="M269.19 270.47s-65.74-2.05-66 25.42c-.32 39.48 37.15 91.33 37.15 91.33l14.66-9.75s-25.68-37.69-25.9-68.51c19.37-5.47 65-2 70.91-18.1 4.84-13.14 2.31-20.39 2.31-20.39Z"/>
                    <path d="M269.19 270.47s-65.74-2.05-66 25.42c-.32 39.48 37.15 91.33 37.15 91.33l14.66-9.75s-25.68-37.69-25.9-68.51c19.37-5.47 65-2 70.91-18.1 4.84-13.14 2.31-20.39 2.31-20.39Z" opacity=".2"/>
                    <path fill="#263238" d="m258.98 379.98-17.44 10.68-5.47-5.55 19.16-12.07 3.75 6.94z"/>
                    <path fill="#4338ca" d="M248.73 400.18a11.2 11.2 0 0 0 1.9-1.74.22.22 0 0 0-.17-.37c-.37 0-3.65 0-4.35 1.07a.85.85 0 0 0-.07.82 1.23 1.23 0 0 0 .92.83 2.62 2.62 0 0 0 1.77-.61Zm1.21-1.65c-1.21 1.26-2.28 1.93-2.9 1.82a.77.77 0 0 1-.58-.56.38.38 0 0 1 0-.4c.4-.56 2.17-.81 3.48-.86Z"/>
                    <path fill="#4338ca" d="M250.59 398.48a.27.27 0 0 0 .07-.08.22.22 0 0 0 0-.22c-.06-.1-1.46-2.48-2.78-2.7a1.14 1.14 0 0 0-1 .29.85.85 0 0 0-.28 1c.42 1 2.73 1.81 3.84 1.74ZM247.3 396a.66.66 0 0 1 .51-.12c.79.13 1.75 1.38 2.25 2.14-1.09-.1-2.73-.8-3-1.45-.05-.12-.08-.29.17-.51.02.02.04-.01.07-.06Z"/>
                    <path fill="#ffb573" d="m246.43 406.19-9.5-.45-1.56-22.43 9.5.45 1.56 22.43z"/>
                    <path fill="#263238" d="m236.71 404.12 10.75-.34a.69.69 0 0 1 .74.63l.79 8.49a1.7 1.7 0 0 1-1.63 1.76c-3.74 0-5.54-.11-10.27 0-2.91.09-8.63.52-12.62 0s-3.38-4.43-1.65-4.58c4.11-.33 9.62-3.17 12.26-5.38a2.69 2.69 0 0 1 1.63-.58Z"/>
                    <path fill="#4338ca" d="M233.37 405.89a11.71 11.71 0 0 0 2.54-.42.22.22 0 0 0 .06-.4c-.31-.2-3.08-2-4.23-1.48a.85.85 0 0 0-.5.65 1.23 1.23 0 0 0 .31 1.2 2.56 2.56 0 0 0 1.82.45Zm1.91-.72c-1.7.39-3 .38-3.42-.05a.82.82 0 0 1-.19-.79.4.4 0 0 1 .24-.32c.62-.27 2.24.48 3.37 1.16Z"/>
                    <path fill="#4338ca" d="M235.86 405.48a.19.19 0 0 0 .1 0 .21.21 0 0 0 .11-.18c0-.12.14-2.88-.86-3.78a1.1 1.1 0 0 0-1-.28.85.85 0 0 0-.79.7c-.19 1 1.3 3 2.27 3.54a.27.27 0 0 0 .17 0Zm-1.43-3.84a.63.63 0 0 1 .48.18c.6.54.72 2.11.73 3-.86-.68-1.86-2.16-1.73-2.85 0-.13.09-.29.41-.34Z"/>
                    <path d="m244.88 383.76-9.51-.45.89 12.83 9.48-.01-.86-12.37z" opacity=".2"/>
                    <path fill="#4338ca" d="M292.57 270.47s-68.78 6.5-66.28 27.21c3.62 29.86 5.4 94.22 5.4 94.22l17.53.69s7.43-58 3.59-88.63c17.8 0 61.38 1.28 65.35-9.44 3.51-9.48 2.26-24 2.26-24Z"/>
                    <path fill="#263238" d="m251.16 393.67-21.04-1.04-.76-9.16 23.08 1.59-1.28 8.61z"/>
                    <path fill="#ffb573" d="M277.31 209.81c-.13 1.68-.26 3.14-.45 4.68s-.39 3-.63 4.56c-.47 3-1.07 6-1.77 9.07a71.77 71.77 0 0 1-6.59 18.22 32.69 32.69 0 0 1-3.09 4.59 20.83 20.83 0 0 1-4.54 4.22 22.69 22.69 0 0 1-11.07 3.74 32 32 0 0 1-10.29-1 40.2 40.2 0 0 1-4.66-1.5c-.76-.29-1.5-.61-2.23-1s-1.41-.71-2.25-1.16l2.63-6.69 1.91.24 2 .2c1.34.11 2.66.18 4 .18a27.67 27.67 0 0 0 7.21-.83 11.85 11.85 0 0 0 5.09-2.65 11.54 11.54 0 0 0 1.66-1.94 23.8 23.8 0 0 0 1.58-2.84 45.89 45.89 0 0 0 2.59-7.11c.76-2.53 1.37-5.18 1.92-7.88s1-5.43 1.45-8.18l.59-4.14c.18-1.36.38-2.82.51-4Z"/>
                    <path fill="#263238" d="M277.37 201.66c-7-6.79-15.7-2.78-19.16 10a118 118 0 0 0-4 20.87l22.27 4.6c4.05-12.19 8.09-28.51.89-35.47Z"/>
                    <path d="M270.2 215.56c1.59-1.43 6.11 5 8.87 12.93-.78 3-1.67 5.89-2.58 8.6l-13.4-2.77c1.07-7.92 3.54-15.54 7.11-18.76Z" opacity=".3"/>
                    <path fill="#ffb573" d="m230.86 244.54-5-1.91-.22 10.61s8.4 3.63 10.11-.54l-.6-2.65a8.59 8.59 0 0 0-4.29-5.51Z"/>
                    <path fill="#ffb573" d="m219.96 242.91-2.95 8.9 8.67 1.43.22-10.61-5.94.28z"/>
                    <path fill="#263238" d="M227.52 250a.56.56 0 0 1-.51-.31l-8.93-17.19a.58.58 0 0 1 .24-.78.59.59 0 0 1 .78.25l8.9 17.16a.58.58 0 0 1-.24.78.66.66 0 0 1-.24.09Zm49.02-55.15 10.68-3 13.72-.64a9.51 9.51 0 0 1 9.5 6.56c2.61 8 5 19.52 6.77 29.49 2 11.19 3 28 3.21 43.26h-51.23c-1.17-31.85-5.22-50.68-7-61.1a9.48 9.48 0 0 1 5.28-10.19Z"/>
                    <path d="M317.21 227.22c-1.38-7.85-3.16-16.69-5.14-24-9.13-1.54-13.55 18.48-10.84 28.41s17.16 3.91 17.16 3.91c-.34-2.99-.74-5.8-1.18-8.32Z" opacity=".3"/>
                    <path fill="#263238" d="M285.4 171c2.2 5.4.88 15.3-3.46 12.5s2.12-15.78 3.46-12.5Z"/>
                    <path fill="#ffb573" d="m283 174.46-4.15 6.34-5.64 8.63a8.62 8.62 0 0 1 1.74 2.55c1 2.08 1.89 3.63-2.48 6.61a2.91 2.91 0 0 0-1.31 2.86c.26 1.35 1.6 2.66 6.31 1.83a21.65 21.65 0 0 0 11.82-6.56c1.57-1.57 1.21-2.75-.3-4.38-4.32-4.6-5.6-11.95-5.99-17.88Z"/>
                    <path d="m274.56 187.3 3.46-6.15q.11.24.24.51A15.71 15.71 0 0 1 279 184c.63 2.73-1.49 6.63-3.82 8.49l-.27-.53a10.8 10.8 0 0 0-1.6-2.45.53.53 0 0 0-.14-.1Z" opacity=".2"/>
                    <path fill="#263238" d="M253.79 167c-1.29 2.91 3.28 11.15 8.51 7.82s-6.23-12.97-8.51-7.82Z"/>
                    <path fill="#fff" d="M279 205.05a.29.29 0 0 1-.29-.24c-.38-2.47-2-4-3.83-5.86-2.32-2.27-4.95-4.85-5.81-9.9a.28.28 0 0 1 .56-.1c.84 4.87 3.4 7.38 5.65 9.59 1.85 1.81 3.59 3.52 4 6.18a.28.28 0 0 1-.24.33Z"/>
                    <path fill="#ffb573" d="M281.13 164.07c2 9.06 3.56 14.27.33 20-4.88 8.67-17.08 7.49-21.72-.85-4.18-7.5-6.67-21.06 1.1-26.91a12.87 12.87 0 0 1 20.29 7.76Z"/>
                    <path fill="#263238" d="M283.82 170.29c-3.12 4.43-11.3-3.7-10.63-9.16-8.12 4.62-16.94 10.79-22.29 5.59-6.18-6-4.49-14.6 2.75-15.37-1.28 2.5 6 3.61 9.87-.25 6.55-6.48 16.9-5.13 16.71.12 4.99-1.98 10.44 9.34 3.59 19.07Z"/>
                    <path fill="#263238" d="M279.27 152.69c1.93-1.44.65-6.57-3.83-8.07 4.26.55 8.67 3.72 3.83 8.07Z"/>
                    <path fill="#ffb573" d="M286.71 169.89a8.48 8.48 0 0 1-1.9 5.71c-1.72 2.05-4.37.42-5-2.14-.55-2.29.16-5.84 2.42-6.94s4.36.79 4.48 3.37Z"/>
                    <path fill="#263238" d="M268.13 171.42c.24.73.06 1.47-.42 1.64s-1-.28-1.29-1-.06-1.47.42-1.65 1.05.27 1.29 1.01Zm-8.2 3c.25.74.06 1.48-.42 1.65s-1.05-.28-1.29-1-.05-1.47.42-1.64 1.05.26 1.29.99Z"/>
                    <path fill="#ed893e" d="M262.74 174a24.9 24.9 0 0 1-.76 6.49c1.47.54 3.09-.73 3.09-.73Z"/>
                    <path fill="#263238" d="M267.13 183.83a6.61 6.61 0 0 0 3.91-3.45.23.23 0 0 0-.12-.3.24.24 0 0 0-.3.13 6.34 6.34 0 0 1-4.45 3.42.23.23 0 1 0 .09.45 6.85 6.85 0 0 0 .87-.25Zm1.75-15.59a.41.41 0 0 0 .17-.15.46.46 0 0 0-.14-.63 4.34 4.34 0 0 0-4.07-.42.45.45 0 0 0-.22.61.46.46 0 0 0 .61.21 3.47 3.47 0 0 1 3.19.36.43.43 0 0 0 .46.02Zm-10.57 1.44a.47.47 0 0 0 0-.23.46.46 0 0 0-.6-.24 4.32 4.32 0 0 0-2.66 3.11.45.45 0 1 0 .89.15 3.45 3.45 0 0 1 2.12-2.42.46.46 0 0 0 .25-.37Z"/>
                    <path fill="#ffb573" d="M308.67 198c1 1.62 1.8 3.08 2.63 4.64s1.63 3.08 2.41 4.64c1.58 3.11 3 6.31 4.38 9.57s2.59 6.62 3.63 10.12a57.11 57.11 0 0 1 2.28 11.28 27 27 0 0 1-.23 6.7 14.88 14.88 0 0 1-1.32 4.21 12.69 12.69 0 0 1-3.06 3.94 13.3 13.3 0 0 1-3.86 2.34 17.59 17.59 0 0 1-3.67 1 25 25 0 0 1-6.41.17 38.44 38.44 0 0 1-5.66-.91 54.18 54.18 0 0 1-5.26-1.48 66 66 0 0 1-9.86-4.18l2.53-6.73c6.22 1.18 12.9 2.27 18.51 1.93a15.68 15.68 0 0 0 3.62-.62c1-.3 1.51-.75 1.47-.89s-.06 0-.08-.1 0-.11 0-.62a14.72 14.72 0 0 0-.2-3.36 46 46 0 0 0-2.23-8.37c-1-2.9-2.21-5.83-3.52-8.73s-2.72-5.81-4.15-8.71q-1.08-2.18-2.23-4.31l-2.26-4.19Z"/>
                    <path fill="#263238" d="M304 191.31c-9.66-1.47-14.41 6.82-9.86 19.2a117.34 117.34 0 0 0 8.82 19.33l20.83-9.13c-3.79-12.25-9.91-27.89-19.79-29.4Z"/>
                    <path fill="#ffb573" d="m281.84 242.39-4.46 1.34 6.33 9s9.38-3.36 7.46-7.44l-2.36-1.34c-2.02-1.17-4.58-2.38-6.97-1.56Z"/>
                    <path fill="#ffb573" d="m273.43 249.93 4.47 4.46 5.81-1.67-6.33-8.99-3.95 6.2z"/>
                    <ellipse cx="283.18" cy="171.01" fill="#fff" rx="1.44" ry="1.74"/>
                    <path fill="#fff" d="m284.37 175.61-.83-.03-.51-4.01 1.58-.35-.24 4.39z"/>
                    <path fill="#fff" d="M290.11 251.2c-3 0-5.66-.45-7.27-1.91a5.75 5.75 0 0 1-1.75-4.5 46.28 46.28 0 0 1 1.91-12.17c1.39-5.45 2.49-9.75-.85-15.06-5.32-8.43-3.73-20.22 0-27.61 2.85-5.65 1.85-11.95 1.49-14.27-.05-.3-.09-.54-.11-.7a.28.28 0 0 1 .26-.31.29.29 0 0 1 .32.25c0 .15.05.38.09.67.38 2.41 1.37 8.8-1.57 14.62-3.65 7.25-5.21 18.8 0 27 3.47 5.51 2.29 10.14.92 15.5a45.9 45.9 0 0 0-1.87 12 5.18 5.18 0 0 0 1.55 4.08c2.7 2.43 8.66 1.81 14.42 1.21 2.58-.26 5.25-.54 7.6-.54a.29.29 0 1 1 0 .58c-2.32 0-5 .27-7.54.54a75.66 75.66 0 0 1-7.6.62Z"/>
                    <rect width="12.58" height="2" x="305.24" y="249.06" fill="#fff" rx=".6"/>
                    <path fill="#4338ca" d="M388.64 257.72H111.36a3.34 3.34 0 0 1-3.33-3.33 3.34 3.34 0 0 1 3.33-3.33h277.28a3.34 3.34 0 0 1 3.33 3.33 3.34 3.34 0 0 1-3.33 3.33Z"/>
                    <path fill="#263238" d="M388.64 257.72h-64.91a3.34 3.34 0 0 1-3.33-3.33 3.34 3.34 0 0 1 3.33-3.33h64.91a3.34 3.34 0 0 1 3.33 3.33 3.34 3.34 0 0 1-3.33 3.33Z" opacity=".3"/>
                    <path fill="#263238" d="M385.58 414.62h6.39l-7.35-156.9h-8.84l9.8 156.9z"/>
                    <path fill="#fff" d="M385.58 414.62h6.39l-7.35-156.9h-8.84l9.8 156.9z" opacity=".1"/>
                    <path fill="#263238" d="M326.79 414.62h-6.39l7.35-156.9h8.84l-9.8 156.9z"/>
                    <path fill="#fff" d="M326.79 414.62h-6.39l7.35-156.9h8.84l-9.8 156.9z" opacity=".2"/>
                    <path fill="#263238" d="M173.22 414.62h6.38l-7.35-156.9h-8.84l9.81 156.9z"/>
                    <path fill="#fff" d="M173.22 414.62h6.38l-7.35-156.9h-8.84l9.81 156.9z" opacity=".1"/>
                    <path fill="#263238" d="M114.42 414.62h-6.39l7.35-156.9h8.84l-9.8 156.9z"/>
                    <path fill="#fff" d="M114.42 414.62h-6.39l7.35-156.9h8.84l-9.8 156.9z" opacity=".2"/>
                    <path fill="#263238" d="M117.24 266.07h213.25v13.15H117.24z"/>
                    <path fill="#fff" d="M117.24 266.07h213.25v13.15H117.24z" opacity=".2"/>
                    <path fill="#4338ca" d="M152.33 242.22a1.4 1.4 0 0 0-1.4 1.39v6a1.4 1.4 0 0 0 1.4 1.4h45.35a.46.46 0 0 0 .46-.45v-7.94a.46.46 0 0 0-.46-.45Z"/>
                    <path fill="#fff" d="M179.17 243.06h19v7.16h-19a.81.81 0 0 1-.81-.81v-5.55a.81.81 0 0 1 .81-.8Z" opacity=".9"/>
                    <rect width="48.61" height="8.85" x="128.84" y="242.22" fill="#4338ca" rx="1.4"/>
                    <rect width="48.61" height="8.85" x="128.84" y="242.22" opacity=".2" rx="1.4"/>
                    <rect width="8.09" height="8.85" x="146" y="242.22" fill="#4338ca" opacity=".5" rx=".57"/>
                    <rect width="8.08" height="8.85" x="156.04" y="242.22" fill="#4338ca" opacity=".5" rx=".57"/>
                    <path fill="#4338ca" d="M144.13 231.32a1.4 1.4 0 0 0-1.4 1.4v8.1a1.4 1.4 0 0 0 1.4 1.4h49.13a.46.46 0 0 0 .45-.46v-10a.46.46 0 0 0-.45-.46Z"/>
                    <path fill="#fff" d="M171 232.17h22.74v9.21H171a.81.81 0 0 1-.81-.81V233a.81.81 0 0 1 .81-.83Z" opacity=".9"/>
                    <rect width="41.32" height="10.89" x="127.92" y="231.32" fill="#4338ca" rx="1.4"/>
                    <rect width="41.32" height="10.89" x="127.92" y="231.32" fill="#fff" opacity=".2" rx="1.4"/>
                    <rect width="29.91" height="6.57" x="135.17" y="233.48" fill="#4338ca" opacity=".6" rx=".85"/>
                    <path fill="#4338ca" d="M158.54 226.11c-.77 0-1.4.37-1.4.82v3.57c0 .45.63.82 1.4.82h45.36c.25 0 .45-.12.45-.26v-4.68c0-.15-.2-.27-.45-.27Z"/>
                    <path fill="#fff" d="M185.2 226.6h19.15v4.22H185.2a.62.62 0 0 1-.62-.62v-3a.62.62 0 0 1 .62-.6Z" opacity=".9"/>
                    <rect width="48.61" height="5.22" x="135.05" y="226.11" fill="#4338ca" rx="1.07"/>
                    <rect width="48.61" height="5.22" x="135.05" y="226.11" opacity=".2" rx="1.07"/>
                    <rect width="1.87" height="5.22" x="140.3" y="226.11" fill="#4338ca" opacity=".5" rx=".21"/>
                    <rect width="1.84" height="5.22" x="178.05" y="226.11" fill="#4338ca" opacity=".5" rx=".21"/>
                    <path fill="#4338ca" d="M150.34 218.57c-.77 0-1.4.37-1.4.82v5.89c0 .46.63.83 1.4.83h49.13c.25 0 .46-.12.46-.27v-7c0-.15-.21-.27-.46-.27Z"/>
                    <path fill="#fff" d="M177 219.06h22.93v6.55H177a.62.62 0 0 1-.62-.62v-5.31a.62.62 0 0 1 .62-.62Z" opacity=".9"/>
                    <rect width="41.32" height="7.54" x="134.13" y="218.57" fill="#4338ca" rx="1.07"/>
                    <rect width="41.32" height="7.54" x="134.13" y="218.57" opacity=".1" rx="1.07"/>
                    <path fill="#fff" d="M259.92 249.4h-41.27a.84.84 0 0 0-.84.83.84.84 0 0 0 .84.83h41.27a.83.83 0 0 0 .83-.83.83.83 0 0 0-.83-.83Z"/>
                    <path fill="#263238" d="M340.66 247.42h27.12l2.45 3.55h-32.02l2.45-3.55z"/>
                    <path d="M382.54 186.83a3.65 3.65 0 1 1-3.65-3.65 3.64 3.64 0 0 1 3.65 3.65Z"/>
                    <path fill="#263238" d="M355.12 249.82a1.16 1.16 0 0 1-1.07-1.6l26.13-61.84a1.16 1.16 0 0 1 2.13.9l-26.13 61.83a1.16 1.16 0 0 1-1.06.71Z"/>
                    <path fill="#263238" d="M381.24 188a1.19 1.19 0 0 1-.69-.23l-47.45-35.59a1.15 1.15 0 0 1 1.38-1.84l47.46 35.57a1.16 1.16 0 0 1-.7 2.08Z"/>
                    <path fill="#263238" d="M384.89 186.83a3.65 3.65 0 1 1-3.65-3.65 3.64 3.64 0 0 1 3.65 3.65Z"/>
                    <circle cx="333.79" cy="151.26" r="3.64" fill="#263238"/>
                    <path fill="#4338ca" d="M328.69 167.9a8.16 8.16 0 1 1 0-11.54 8.17 8.17 0 0 1 0 11.54Z"/>
                    <path fill="#fff" d="M328.69 167.9a8.16 8.16 0 1 1 0-11.54 8.17 8.17 0 0 1 0 11.54Z" opacity=".7"/>
                    <path fill="#263238" d="M333.79 151.26a17.47 17.47 0 0 0-24.72 0L333.79 176a17.48 17.48 0 0 0 0-24.74Z"/>
                    
                </svg>